<svg version="1.1" xmlns="http://www.w3.org/2000/svg" xmlns:xlink="http://www.w3.org/1999/xlink" viewBox="0 0 172 172"><g fill="none" fill-rule="nonzero" stroke="none" stroke-width="1" stroke-linecap="butt" stroke-linejoin="miter" stroke-miterlimit="10" stroke-dasharray="" stroke-dashoffset="0" font-family="none" font-weight="none" font-size="none" text-anchor="none" style="mix-blend-mode: normal"><path d="M0,172v-172h172v172z" fill="none"></path><g fill="#FFFFFF"><path d="M146.91667,0h-107.5c-9.87567,0 -17.91667,8.041 -17.91667,17.91667v143.33333c0,5.92683 4.82317,10.75 10.75,10.75h107.5c5.92683,0 10.75,-4.82317 10.75,-10.75v-129c0,-1.978 -1.60533,-3.58333 -3.58333,-3.58333h-107.5c-5.92683,0 -10.75,-4.82317 -10.75,-10.75c0,-5.92683 4.82317,-10.75 10.75,-10.75h107.5c1.978,0 3.58333,-1.60533 3.58333,-3.58333c0,-1.978 -1.60533,-3.58333 -3.58333,-3.58333zM139.75,164.83333h-89.58333v-129h93.16667v125.41667c0,1.978 -1.60533,3.58333 -3.58333,3.58333zM39.41667,35.83333h3.58333v129h-10.75c-1.978,0 -3.58333,-1.60533 -3.58333,-3.58333v-129.09317c3.00283,2.279 6.70083,3.6765 10.75,3.6765z"></path><path d="M146.91667,14.33333h-107.5c-1.978,0 -3.58333,1.60533 -3.58333,3.58333c0,1.978 1.60533,3.58333 3.58333,3.58333h107.5c1.978,0 3.58333,-1.60533 3.58333,-3.58333c0,-1.978 -1.60533,-3.58333 -3.58333,-3.58333z"></path></g></g></svg>