<svg width="28" height="34" viewBox="0 0 28 34" fill="none" xmlns="http://www.w3.org/2000/svg">
<g clip-path="url(#clip0)">
<path d="M27.4341 0.662004L22.9441 0.00700373C22.8884 -0.00390458 22.831 -0.00248512 22.7759 0.0111625C22.7207 0.0248101 22.6693 0.050355 22.6251 0.0860037L20.7121 2.546C20.6505 2.62185 20.6086 2.71175 20.5901 2.8077C20.5716 2.90365 20.5771 3.00269 20.6061 3.096C20.6591 3.28 20.5001 3.437 20.3141 3.411L18.7461 3.071C18.6245 3.04311 18.4975 3.05039 18.38 3.092C18.2624 3.13362 18.1591 3.20784 18.0821 3.306L11.8651 11.161C11.7581 11.318 11.5451 11.371 11.3601 11.292L8.99511 10.245C8.89421 10.195 8.78161 10.1734 8.66939 10.1826C8.55716 10.1918 8.44955 10.2313 8.35811 10.297L7.16211 11.109C7.06561 11.1749 6.95353 11.2144 6.83704 11.2235C6.72054 11.2326 6.60369 11.2111 6.49811 11.161L5.91311 10.873C5.82547 10.8308 5.72965 10.8084 5.6324 10.8072C5.53514 10.806 5.43881 10.8261 5.35017 10.8661C5.26153 10.9062 5.18273 10.9651 5.11932 11.0389C5.0559 11.1126 5.00941 11.1994 4.98311 11.293L4.55811 13.151C4.45211 13.596 4.63811 14.041 5.03611 14.277L5.94011 14.827L8.83611 16.581L10.2441 17.445C10.6431 17.681 11.1471 17.629 11.4931 17.341L13.8571 15.298C14.0431 15.141 14.3361 15.088 14.5481 15.22L15.2661 15.586C15.381 15.6476 15.5127 15.6707 15.6417 15.652C15.7708 15.6333 15.8904 15.5737 15.9831 15.482L17.1791 14.382C17.2701 14.297 17.3847 14.2415 17.5079 14.2228C17.631 14.204 17.7569 14.2229 17.8691 14.277L19.6491 15.089C19.9151 15.219 20.2341 15.141 20.4201 14.906L21.2441 13.858L27.4881 5.977C27.5563 5.89177 27.6014 5.79041 27.6191 5.68269C27.6368 5.57497 27.6264 5.46452 27.5891 5.36195C27.5517 5.25939 27.4886 5.16817 27.4057 5.09707C27.3229 5.02597 27.2231 4.97739 27.1161 4.956L25.7341 4.642C25.4421 4.589 25.3091 4.222 25.5211 4.013L27.6741 1.369C27.8861 1.054 27.7541 0.714004 27.4341 0.662004V0.662004ZM6.84311 16.529C6.71011 16.451 6.57711 16.581 6.63011 16.712L7.29411 18.44C7.34811 18.571 7.34811 18.702 7.32111 18.833L6.73611 21.085C6.71011 21.242 6.76311 21.399 6.86911 21.478L8.54311 22.761C8.70311 22.866 8.91511 22.866 9.04811 22.735L10.8021 21.215C10.9081 21.137 11.0411 21.085 11.1471 21.059L13.1401 20.849C13.2731 20.823 13.3261 20.639 13.1931 20.561L6.84311 16.529V16.529ZM6.25811 22.342C6.201 22.3016 6.1349 22.2758 6.06555 22.2667C5.99619 22.2577 5.92567 22.2656 5.86011 22.29L4.45211 22.97C4.37211 22.996 4.31911 23.075 4.26611 23.154L1.26311 30.459V30.511C1.29011 30.537 1.31611 30.564 1.37011 30.564L2.06011 30.302H2.14011C2.16711 30.328 2.19311 30.38 2.16711 30.407L0.0141057 33.889C-0.0388943 33.967 0.0681057 34.046 0.121106 33.967L7.90611 26.269C7.9757 26.1974 8.02206 26.1064 8.03911 26.008L8.19811 24.018C8.19866 23.9592 8.18714 23.9009 8.16426 23.8467C8.14139 23.7925 8.10764 23.7436 8.06511 23.703L6.25811 22.342V22.342Z" fill="white"/>
</g>
<defs>
<clipPath id="clip0">
<rect width="28" height="34" fill="white"/>
</clipPath>
</defs>
</svg>
